<svg xmlns="http://www.w3.org/2000/svg" viewBox="0 0 20 28"><defs><style>.cls-1{fill:#e58e10;}</style></defs><title>Asset 1</title><g id="Layer_2" data-name="Layer 2"><g id="Layer_1-2" data-name="Layer 1"><path class="cls-1" d="M17.76,0H1.48S.2.29,0,1v9.07a1.64,1.64,0,0,0,1.48,1.28c.71,0,1.52-1.28,1.52-1.28V7.58A5.58,5.58,0,0,1,8.58,2h6.14A1.28,1.28,0,0,1,16,3.28v8.21a.51.51,0,0,0,.51.51h3a.51.51,0,0,0,.51-.51V2.24A2.24,2.24,0,0,0,17.76,0Z"/><path class="cls-1" d="M0,16.37V28H14.77A5.23,5.23,0,0,0,20,22.77V13H3.37A3.37,3.37,0,0,0,0,16.37Zm10.2.85A3.2,3.2,0,1,1,7,20.42,3.2,3.2,0,0,1,10.2,17.22Z"/></g></g></svg>